<?xml version="1.0" standalone="no"?>
<!DOCTYPE svg PUBLIC "-//W3C//DTD SVG 20010904//EN"
 "http://www.w3.org/TR/2001/REC-SVG-20010904/DTD/svg10.dtd">
<svg version="1.0" xmlns="http://www.w3.org/2000/svg"
 width="180.000000pt" height="180.000000pt" viewBox="0 0 180.000000 180.000000"
 preserveAspectRatio="xMidYMid meet">
<metadata>
Created by potrace 1.14, written by Peter Selinger 2001-2017
</metadata>
<g transform="translate(0.000000,180.000000) scale(0.100000,-0.100000)"
fill="#000000" stroke="none">
<path d="M1326 1709 c-16 -4 -42 -18 -60 -29 -34 -24 -96 -100 -96 -119 0 -8
-7 -10 -19 -6 -59 19 -242 22 -316 6 -131 -30 -232 -86 -382 -215 -18 -15 -38
-19 -99 -19 -161 1 -276 -58 -319 -161 -29 -69 -20 -201 18 -268 11 -21 23
-38 26 -38 3 0 20 -13 38 -28 28 -25 32 -35 33 -85 0 -31 1 -65 2 -74 1 -37
30 -140 54 -188 118 -244 431 -398 809 -398 72 0 141 2 154 6 49 13 117 41
132 54 8 7 21 13 28 13 7 0 51 26 99 57 168 112 313 285 348 415 35 133 0 323
-91 496 -35 67 -35 69 -20 105 48 115 -1 291 -113 403 -70 71 -144 95 -226 73z"/>
</g>
</svg>
